<svg xmlns="http://www.w3.org/2000/svg" viewBox="0 0 12.73 14.14"><defs><style>.cls-1{fill:#fff;}.cls-2{fill:#40bf8e;}</style></defs><g id="Layer_2" data-name="Layer 2"><g id="Layer_1-2" data-name="Layer 1"><path class="cls-1" d="M6.93,1.48A1,1,0,0,1,8.09.32,1,1,0,0,1,8.81,1,1,1,0,0,1,7.65,2.2,1,1,0,0,1,6.93,1.48Zm3.79,9a.8.8,0,0,0-.91.92.76.76,0,0,0,.65.65.8.8,0,0,0,.92-.91A.78.78,0,0,0,10.72,10.49ZM6.38,5.86A1.21,1.21,0,1,0,7.59,7.07,1.22,1.22,0,0,0,6.38,5.86Zm5,1.21C12.52,8.4,13,9.72,12.51,10.6a1.74,1.74,0,0,1-.78.68,1.14,1.14,0,0,0-.11-.49,1.19,1.19,0,0,0,.48-.43C12.51,9.67,12,8.58,11,7.42A12.25,12.25,0,0,1,9.42,8.8,13.45,13.45,0,0,1,9,10.89l.51.1a.94.94,0,0,0-.05.3.5.5,0,0,0,0,.18c-.21,0-.42-.06-.63-.11-.59,1.7-1.48,2.78-2.51,2.78s-1.91-1.08-2.47-2.78c-.22.05-.45.08-.66.11a8,8,0,0,1-.82,0A2.36,2.36,0,0,1,.26,10.6,1.71,1.71,0,0,1,.1,9.43a.76.76,0,0,0,.47.16,1.22,1.22,0,0,0,.13.77c.32.56,1.23.79,2.5.63l.58-.1A13.45,13.45,0,0,1,3.4,8.8,13.16,13.16,0,0,1,1.77,7.42l-.37.45A.21.21,0,0,1,1.34,8,1.26,1.26,0,0,0,1,7.74a.45.45,0,0,1,0-.11c.14-.19.29-.37.45-.56A6.75,6.75,0,0,1,1,6.55c-.91-1.2-1.17-2.26-.74-3s1.5-1.06,3-.86c.21,0,.44.06.66.11C4.46,1.08,5.36,0,6.38,0a1.41,1.41,0,0,1,.76.21,1.45,1.45,0,0,0-.35.35A1.19,1.19,0,0,0,6.38.48c-.78,0-1.52,1-2,2.41a12.06,12.06,0,0,1,2,.71,11.84,11.84,0,0,1,2-.71c-.05-.13-.09-.27-.14-.4a1.59,1.59,0,0,0,.43-.22c.07.16.13.33.19.51.23,0,.45-.08.66-.11,1.5-.2,2.56.11,3,.86s.18,1.82-.74,3ZM9,3.24a12.53,12.53,0,0,1,.39,2.09A14.39,14.39,0,0,1,11,6.71a5.19,5.19,0,0,0,.37-.45c.77-1,1-1.92.71-2.48a1.92,1.92,0,0,0-1.75-.68,7.07,7.07,0,0,0-.76,0A4.09,4.09,0,0,0,9,3.24ZM7,3.87c.32.16.65.34,1,.52s.62.36.91.57a14.14,14.14,0,0,0-.32-1.6A11.79,11.79,0,0,0,7,3.87Zm2,1.72c-.38-.27-.8-.55-1.23-.8a13.64,13.64,0,0,0-1.31-.68c-.43.2-.86.44-1.3.68s-.85.51-1.23.78a14.39,14.39,0,0,0-.07,1.48c0,.5,0,1,.07,1.48a13.64,13.64,0,0,0,1.23.79c.44.25.87.48,1.3.67.44-.19.87-.43,1.31-.67s.85-.52,1.23-.79A14.12,14.12,0,0,0,9,7.05,11.89,11.89,0,0,0,8.92,5.59ZM4.23,3.34A12.07,12.07,0,0,0,3.91,5c.29-.2.61-.39.92-.58s.64-.35,1-.51A12.4,12.4,0,0,0,4.23,3.34ZM1.39,6.26a5.19,5.19,0,0,0,.37.45A11.83,11.83,0,0,1,3.38,5.33a12.53,12.53,0,0,1,.39-2.09,4.09,4.09,0,0,0-.58-.09,7.07,7.07,0,0,0-.76,0,2,2,0,0,0-1.75.68C.34,4.34.6,5.24,1.39,6.26Zm1.93,1.9c0-.35,0-.72,0-1.09s0-.74,0-1.09A13.4,13.4,0,0,0,2.08,7.07,13.4,13.4,0,0,0,3.32,8.16Zm.91,2.63a11.79,11.79,0,0,0,1.56-.51l-1-.51a9.54,9.54,0,0,1-.92-.58A14.14,14.14,0,0,0,4.23,10.79Zm4.16.45a13.43,13.43,0,0,1-2-.7,13,13,0,0,1-2,.7c.48,1.47,1.2,2.41,2,2.41S7.89,12.71,8.39,11.24Zm.47-2.07c-.29.2-.61.39-.92.58l-1,.51a13.58,13.58,0,0,0,1.56.52A13.1,13.1,0,0,0,8.86,9.17Zm1.81-2.1A10.25,10.25,0,0,0,9.44,6c0,.35,0,.72,0,1.09s0,.74,0,1.09A12.07,12.07,0,0,0,10.67,7.07ZM.54,9.27a.66.66,0,0,0,.74-.74A.64.64,0,0,0,.75,8,.64.64,0,1,0,.54,9.27Z"/><path class="cls-2" d="M5.7,7.07A.66.66,0,0,0,7,7.07a.66.66,0,0,0-1.32,0"/><path class="cls-2" d="M10.24,11.28a.34.34,0,1,0,.34-.34.34.34,0,0,0-.34.34"/><path class="cls-2" d="M7.4,1.26a.47.47,0,0,0,.46.46.46.46,0,0,0,.45-.46A.45.45,0,0,0,7.86.81a.46.46,0,0,0-.46.45"/><path class="cls-2" d="M.38,8.64a.25.25,0,1,0,.25-.25.25.25,0,0,0-.25.25"/></g></g></svg>